<?xml version="1.0" encoding="utf-8"?>
<!-- Generator: Adobe Illustrator 16.0.0, SVG Export Plug-In . SVG Version: 6.00 Build 0)  -->
<!DOCTYPE svg PUBLIC "-//W3C//DTD SVG 1.1//EN" "http://www.w3.org/Graphics/SVG/1.1/DTD/svg11.dtd">
<svg version="1.1" id="Capa_1" xmlns="http://www.w3.org/2000/svg" xmlns:xlink="http://www.w3.org/1999/xlink" x="0px" y="0px"
	 width="479.303px" height="479.301px" viewBox="0 0 479.303 479.301" enable-background="new 0 0 479.303 479.301"
	 xml:space="preserve">
<g opacity="0.1">
	<path d="M9.948,159.572c-0.2,2.6,1,4.5,2.4,6.5c1,1.5,2.199,3.2,2.399,4.9c0.3,2.8,1.8,3.5,4.101,4c2.6,0.6,4.699,2,5.399,4.8
		c0.7,2.6,2.101,3.3,4.7,2.3c5.1-1.9,10.2-4,15.3-6c-0.1,0.6-0.3,1.5-0.399,2.4c-0.4,3.6-1,7.2-0.9,10.7c0.1,3.7,2.4,6,5.8,6
		c6.601,0,13.101-0.1,19.7-0.3c3.2-0.1,6-1.3,8.2-3.8c0.3-0.3,0.7-0.8,1-0.7c3.899,0.7,6-2,8.399-4.3c2.7-2.6,5.801-4.4,9.801-4.3
		c2.5,0.1,5.1-0.7,8-1.1c0,0,0.399,0.5,0.699,1.1c1.4,2.2,2,4.2,0.301,6.7c-0.801,1.3-0.4,3.4-0.5,5.2c-0.101,1.3,0.199,2.8-0.2,4
		c-0.601,1.9-0.7,3.6,0.1,5.5c2.2,4.8,5.601,8.6,9.601,11.9c2.199,1.8,4.6,2.4,7.399,1.9c0.9-0.1,2,0.4,2.9,0.9
		c1.2,0.7,2.1,2.1,3.3,2.4c1.8,0.5,3,1.3,4.1,2.6c1.5,1.8,3.4,3,5.801,2.6c1.8-0.3,2.6,0.2,3.1,2c1.1,3.8,3.4,4.9,7.3,4
		c1.101-0.3,2.601,0,3.7,0.5c2.5,1.1,4.8,2.6,7.2,3.7c1.6,0.7,2.399,1.7,2.6,3.3c0.3,2.3,0.5,4.5,0.5,6.8
		c-0.1,3.1,0.3,6.3-2.399,8.8c-0.4,0.3-0.601,1.101-0.601,1.601c0.3,2.601,0.8,5.101,2.9,6.899c3.5,3,7.6,4.8,12.2,5.2
		c2,0.2,4.1,0,6.199,0.1c2.7,0.102,3.601,1.4,2.9,3.9c-0.2,0.6-0.4,1.3-0.7,1.9c-2.6,5.299-1,8.799,4.5,10.5
		c1.101,0.398,2.7,1.6,2.7,2.398c0.2,4.2,2,8.7-1.3,12.602c-0.4,0.398-0.8,0.898-0.9,1.5c-0.2,1.1-0.6,2.5-0.2,3.398
		c0.5,1.102,0.5,1.7-0.199,2.602c-1.5,2-2.5,4-2.7,6.6c-0.3,5.3-1,10.6-1.4,15.9c-0.2,2.6-0.3,5.299-0.2,7.898
		c0.101,2.2,1.301,4.102,3.5,4.602c3,0.6,6.101,1,9.101,1c8.1,0,14.1,7.199,12.7,15.199c-0.4,2.101-0.301,4.399-0.2,6.601
		c0.1,2.8,1,3.399,3.8,2.899c1.3-0.199,2.6-0.601,3.9-0.699c3.199-0.2,5.5,1.8,5.1,5c-0.4,3.6-1.1,7.3-2.3,10.699
		c-1.3,3.801-1.601,3.699,1.7,6c3.3,2.301,4.6,5.5,4.1,9.399c-0.3,2.601-1,5.101-1.1,7.7c-0.101,4-2.801,6.1-5.801,7.1
		c-8.1,2.5-14.3,7.602-20.3,13.102c-3.7,3.398-6.899,7.199-10.3,10.898c-1.9,2-2,3.301-0.5,5.699c0.4,0.701,0.8,1.4,1.3,2
		c2.4,3.102,5.5,5.701,4.5,10.4c-0.399,1.9,1,2.801,2.9,2.201c0.8-0.201,1.5-0.602,2.2-1.102c1.6-1.1,2.899-0.5,3.899,0.699
		c3.9,4.9,8.3,9.102,13.2,12.801c2.2,1.602,3.9,3.699,4.3,6.4c0.3,2.299,1.7,2.5,3.5,2.299c1.7-0.199,3.3-0.699,5.101-1.1
		c1.1,2.301,2.8,2.6,4.399,0.6c0.7-0.898,1.5-1.898,1.7-3c1.1-4.5,3.2-8.199,6.6-11.398c3.3-3.102,6.2-6.602,9.4-10.102
		c0.2,0.201,0.6,0.4,0.899,0.701c2.5,2.6,5.399,2.398,7.301-0.602c1.1-1.801,2.199-3.6,3.1-5.6c1.601-3.4,3.9-5.9,6.9-8.1
		c2.1-1.602,3.898-3.602,5.398-5.701c2.4-3.5,3.2-7.799,3.7-11.9c0.5-3.6,0.7-7.299,1.101-10.898c0.101-1.4,0.399-2.801,0.601-4.101
		c0.7-4.5,4.5-8,3.899-13c1,0.5,1.699,1,2.5,1.399c1.399,0.601,2.5,0.399,3.199-1.199c1.5-3.6,4.7-5.301,8.102-6.301
		c2.7-0.899,5-2.101,7.2-3.899c2.5-2.101,5.1-4.101,8.8-3.899c5.399,0.199,10.399-1.101,14.2-5.301c3.3-3.6,6.8-4.199,11-1.8
		c2.699,1.5,5.699,1.7,8.8,1.3c6-0.898,11.2-3.5,16.1-6.898c3.801-2.701,7.2-5.801,9.2-10.201c1.3-2.899,3.3-5.199,6.4-6.399
		c1-0.399,2-0.8,2.699-1.5c3.899-4.7,7.801-9.5,11.601-14.399c1.899-2.5,1-5.5,1.2-8.301c0.1-2.6,0.399-5.398,2.699-6.898
		c4-2.7,6-6.602,7.601-10.801c0.7-1.699,0.7-3.699,1-5.5c-0.101-0.301,0.601-0.5,0.7-0.801c0.399-1.199,0.699-2.5,0.899-3.799
		c0.699-3.601,1.399-7.101,2-10.701c0.699-4.299,1.3-8.6,1.899-12.898c0.601-4,0.8-8,1.601-12c0.5-2.801,2.101-5.301,5-6.2
		c9.399-3.2,15.899-9.3,18.699-18.8c1.4-4.6,4.101-6.8,8.601-7.6c5.101-0.9,9.801-2.7,12.801-7.3c0.8-1.3,1.3-2.8,2.3-3.9
		c2.601-2.8,5.399-5.4,8.101-8.1c6.399-6.3,8.8-13.7,6.601-22.5c-0.801-3-1.2-6-1.7-9.1c-0.399-2.5-0.2-5.2-0.899-7.6
		c-1.601-5.3-4.601-9.5-10.7-10.5c-1.699-0.3-3.3-0.8-5-1c-3.699-0.6-6.8-2.2-9.101-5c-4-5.1-7.899-10.4-11.6-15.7
		c-2.4-3.4-4.2-7.1-9.101-7.5c-0.601,0-1.301-0.9-1.7-1.6c-2-3.5-5-5.3-8.899-5.7c-2.101-0.2-4.399-0.4-6.3,0.2
		c-5.5,1.8-10.5,0.2-15.4-1.7c-2-0.7-4-2-5.399-3.5c-1.8-1.9-4-2.8-6.399-3.1c-4.601-0.7-8.899,0.6-13.101,2.2
		c-2.101,0.8-4.3,1.6-6.699,2.4c1.1-4.3,2.1-8.2,3.199-12.1c0.5-1.9,0.301-2.9-1.699-3.7c-3-1.3-5.801-3-8.601-4.7
		c-1.399-0.9-2.5-2.2-4-3.1c-5.301-3.2-11.101-5-17.2-6.2c-6.8-1.3-13.199-0.3-18.8,4.1c-2.801,2.2-5.601,4.3-8.301,6.3
		c-0.899-2.1-2.199-3.9-3.8-5.3c1-0.1,2.101-0.4,3.101-0.8c2-0.8,4-1.7,5.699-2.9c3-2.3,6-4.7,8.7-7.4c1.601-1.6,1.2-2.9-0.899-3.9
		c-5.801-2.8-12-3.9-18.399-3.9c-3,0-5.501,1.2-7.801,2.6c-2.399,1.5-4.5,3.3-7,4.7c-2,1.1-4.101,2.2-7.101,1.5
		c0.899-1.9,1.399-3.8,2.5-5.3c4.5-6.2,10.101-11.1,16.801-14.8c1.899-1,3.5-2.3,3.101-4.8c-0.3-1.8,0.399-3,1.8-4
		c1.101-0.8,2.101-1.7,3.5-2.9c-1.3-0.7-2.101-1.3-3.101-1.6c-1.899-0.7-4.101-1-5.899-1.9c-1.2-0.6-2.4-1.8-2.7-3
		c-0.601-2.3-0.399-4.8-1-7.2c-1.2-5.5-2.7-11-4-16c-2.5-1.7-4.101-0.7-5.5,0.9c-1.399,1.5-3,2.8-4.3,4.4c-0.601,0.8-1.101,2-0.9,3
		c0.4,3,0.4,3.5-2.399,4.2c-2.5,0.7-4,2.2-4.8,4.4c-0.601,1.6-1.801,2.4-3.399,2.8c-4.5,1.1-8.9,0.8-13.4,0.2
		c-3.398-0.5-6.5-1.3-8.5-4.4c-0.398-0.7-1.398-1.2-2.1-1.3c-2.9-0.5-5.8-0.8-8.7-1.3c-2.1-0.4-3.3,0.3-4.5,2.1
		c-2.1,3.4-7.1,7.2-12.6,5c-3.5-1.4-7.2-0.9-10.8,0.3c-3.4,1.1-6.9,1.9-10.4,2.5c-2.5,0.5-5,0.1-7-1.8c-4.3-4-6.8-9-7.5-14.9
		c-0.6-4.9,1.3-9.1,3.8-13c2.7-4.1,2.601-4.6-1.1-7.5c-1.8-1.4-2.5-3-2-5.2c0.2-0.9,0.8-1.8,0.6-2.5c-0.2-1.1-0.7-2.5-1.5-2.9
		c-2.3-1.2-4.1-0.5-5.899,2c-2.5,3.3-4.7,7-9.2,7.7c-3.2,0.5-6.5,0.8-9.8,1.1c-0.801,0.1-1.601-0.2-2.4-0.1c-2.5,0.1-3.8,1.8-5,3.7
		c-2.1,3.5-3,3.6-6,0.8c-0.3-0.2-0.5-0.6-0.8-0.7c-2.7-1.4-5.3-2.8-8-3.9c-0.7-0.3-2.2,0.4-2.7,1.1c-1.8,2.5-1.8,5.4-1.1,8.3
		c1,3.8,2.8,6.7,6.699,8.5c3.4,1.6,3.2,5.7,0,7.5c-1,0.6-2.199,0.9-3.199,1.5c-6.801,3.9-13.601,7.8-20.4,11.8
		c-1.4,0.9-2.7,0.9-4.1,0.3c-2.601-1.2-5.101-1.3-7.5,0.5c-0.301,0.3-1.2,0.3-1.601,0c-3.1-2.1-5.6-4.6-6.3-8.6
		c-0.6-3.5-2.3-6.1-6.1-7c-2.601-0.6-4.9,0-7.301,0.8c-3.399,1.1-6.699,1.2-10.3,0.7c-2.5-0.4-5.1-0.3-7.6,0c-1.7,0.2-2.8,1.6-3,3.4
		c-0.2,1.9,1,3,2.6,3.7c1.101,0.5,2.3,0.8,3.101,1.6c0.8,0.7,1.5,1.9,1.5,2.8c0,0.7-1.101,1.7-1.9,2c-1.2,0.4-2.6,0.5-3.9,0.5
		c-4.699,0.2-6.899,3.1-5,7.4c1.2,2.7,2.9,5.3,4.801,7.6c3.5,4.5,3.899,8.7,0.699,13.3c-1.8,2.6-3.5,5.3-2.5,8.8
		c0.2,0.7-0.1,1.6-0.5,2.3c-1.399,3-2.399,6.1-2.3,9.6c0,0.8-0.3,1.7-0.6,2.5c-0.5,1.8-1.4,3.6-1.5,5.4c-0.3,4.4-2.2,6-6.3,4.7
		c-3.9-1.3-7.301-0.7-10.801,1.2c-1.199,0.6-2.699,0.7-4.1,0.8c-1.6,0-3.2-0.3-4.9-0.5c-0.399,2.2-1.899,3.1-3.899,3.4
		c-0.5,0.1-0.9,0.4-1.3,0.7c-6.4,4.4-8.7,11.2-10.4,18.3c-0.5,1.9-0.6,3.7-2.9,4.8c-1.5,0.7-2.8,2.3-3.8,3.8
		c-2.5,3.7-2.399,6.4,0.4,9.9C9.148,155.472,10.148,157.271,9.948,159.572z"/>
</g>
</svg>
