<?xml version="1.0" encoding="utf-8"?>
<!-- Generator: Adobe Illustrator 16.0.0, SVG Export Plug-In . SVG Version: 6.00 Build 0)  -->
<!DOCTYPE svg PUBLIC "-//W3C//DTD SVG 1.1//EN" "http://www.w3.org/Graphics/SVG/1.1/DTD/svg11.dtd">
<svg version="1.1" id="Layer_1" focusable="false" xmlns="http://www.w3.org/2000/svg" xmlns:xlink="http://www.w3.org/1999/xlink"
	 x="0px" y="0px" width="674px" height="909px" viewBox="0 0 674 909" enable-background="new 0 0 674 909" xml:space="preserve">
<path fill="#525252" d="M661.231,368.67c5.134-4.081,12.769-0.263,12.769,6.187v269.205c0,34.885-28.303,63.188-63.188,63.188
	H63.187C28.302,707.25,0,678.947,0,644.063V374.989c0-6.582,7.504-10.268,12.77-6.188c29.487,22.906,68.585,51.998,202.858,149.544
	c27.775,20.272,74.64,62.924,121.372,62.661c46.996,0.395,94.781-43.179,121.505-62.661
	C592.778,420.8,631.744,391.576,661.231,368.67z M337,538.75c30.541,0.526,74.509-38.439,96.625-54.499
	c174.687-126.77,187.982-137.828,228.265-169.422c7.635-5.924,12.11-15.139,12.11-24.88v-25.012
	c0-34.885-28.303-63.188-63.188-63.188H63.187C28.302,201.75,0,230.053,0,264.938v25.012c0,9.741,4.476,18.825,12.111,24.88
	c40.282,31.462,53.577,42.652,228.265,169.422C262.491,500.311,306.46,539.276,337,538.75L337,538.75z"/>
</svg>
